<svg width="30" height="31" viewBox="0 0 30 31" fill="none" xmlns="http://www.w3.org/2000/svg">
<g clip-path="url(#clip0_1_28)">
<path d="M11.0938 4.42499L21.625 14.925C21.7428 15.0388 21.8334 15.1776 21.89 15.3312C21.9433 15.4817 21.97 15.6403 21.9688 15.8C21.9699 15.9596 21.9433 16.1182 21.89 16.2687C21.8333 16.4223 21.7427 16.5612 21.625 16.675L11.0938 27.2062C10.8025 27.4975 10.4375 27.6437 10 27.6437C9.56252 27.6437 9.18752 27.4875 8.87502 27.175C8.56252 26.8625 8.40627 26.4975 8.40627 26.0812C8.40566 25.8766 8.44694 25.674 8.52755 25.4859C8.60816 25.2978 8.72641 25.1282 8.87502 24.9875L18.0625 15.8L8.87502 6.61249C8.58377 6.32124 8.43752 5.96249 8.43752 5.53499C8.43752 5.10749 8.59377 4.73749 8.90627 4.42499C9.04696 4.27638 9.21658 4.15813 9.40468 4.07751C9.59277 3.9969 9.79538 3.95563 10 3.95624C10.2047 3.95563 10.4073 3.9969 10.5954 4.07751C10.7835 4.15813 10.9531 4.27638 11.0938 4.42499Z" fill="white"/>
</g>
<defs>
<clipPath id="clip0_1_28">
<rect width="30" height="30" fill="white" transform="matrix(-1 0 0 -1 30 30.8)"/>
</clipPath>
</defs>
</svg>
