<svg width="30" height="31" viewBox="0 0 30 31" fill="none" xmlns="http://www.w3.org/2000/svg">
<g clip-path="url(#clip0_1_24)">
<path d="M18.9062 27.175L8.37498 16.675C8.25722 16.5612 8.16664 16.4224 8.10998 16.2687C8.05667 16.1183 8.03002 15.9596 8.03123 15.8C8.03007 15.6404 8.05672 15.4817 8.10998 15.3312C8.16668 15.1776 8.25725 15.0388 8.37498 14.925L18.9062 4.39374C19.1975 4.10249 19.5625 3.95624 20 3.95624C20.4375 3.95624 20.8125 4.11249 21.125 4.42499C21.4375 4.73749 21.5937 5.10249 21.5937 5.51874C21.5943 5.72338 21.5531 5.92599 21.4725 6.11408C21.3918 6.30218 21.2736 6.4718 21.125 6.61249L11.9375 15.8L21.125 24.9875C21.4162 25.2787 21.5625 25.6375 21.5625 26.065C21.5625 26.4925 21.4062 26.8625 21.0937 27.175C20.953 27.3236 20.7834 27.4418 20.5953 27.5225C20.4072 27.6031 20.2046 27.6443 20 27.6437C19.7953 27.6443 19.5927 27.6031 19.4046 27.5225C19.2165 27.4418 19.0469 27.3236 18.9062 27.175Z" fill="white"/>
</g>
<defs>
<clipPath id="clip0_1_24">
<rect width="30" height="30" fill="white" transform="translate(0 0.799988)"/>
</clipPath>
</defs>
</svg>
