<svg width="23" height="24" viewBox="0 0 23 24" fill="none" xmlns="http://www.w3.org/2000/svg">
<path d="M11.6437 16.4025V18.415" stroke="white" stroke-width="1.4375" stroke-linecap="round" stroke-linejoin="round"/>
<path d="M6.85211 21.6733H16.4354V20.715C16.4354 19.6608 15.5729 18.7983 14.5188 18.7983H8.76878C7.71461 18.7983 6.85211 19.6608 6.85211 20.715V21.6733Z" stroke="white" stroke-width="1.4375" stroke-miterlimit="10"/>
<path d="M5.89377 21.6734H17.3938M11.5 15.9234C7.79127 15.9234 4.79169 12.9238 4.79169 9.21505V6.34005C4.79169 4.22213 6.5071 2.50671 8.62502 2.50671H14.375C16.4929 2.50671 18.2084 4.22213 18.2084 6.34005V9.21505C18.2084 12.9238 15.2088 15.9234 11.5 15.9234Z" stroke="white" stroke-width="1.4375" stroke-linecap="round" stroke-linejoin="round"/>
<path d="M5.2421 11.7546C4.52335 11.5246 3.89085 11.103 3.39252 10.6046C2.53002 9.64629 1.95502 8.49629 1.95502 7.15462C1.95502 5.81296 3.00918 4.75879 4.35085 4.75879H4.97377C4.7821 5.19962 4.68627 5.68837 4.68627 6.19629V9.07129C4.68627 10.0296 4.88752 10.9305 5.2421 11.7546ZM17.7579 11.7546C18.4767 11.5246 19.1092 11.103 19.6075 10.6046C20.47 9.64629 21.045 8.49629 21.045 7.15462C21.045 5.81296 19.9908 4.75879 18.6492 4.75879H18.0263C18.2179 5.19962 18.3138 5.68837 18.3138 6.19629V9.07129C18.3138 10.0296 18.1125 10.9305 17.7579 11.7546Z" stroke="white" stroke-width="1.4375" stroke-linecap="round" stroke-linejoin="round"/>
</svg>
