<svg width="24" height="24" viewBox="0 0 24 24" fill="none" xmlns="http://www.w3.org/2000/svg">
<path fill-rule="evenodd" clip-rule="evenodd" d="M10.7293 2.03519C10.8147 1.93683 10.9253 1.86356 11.0492 1.82322C11.1731 1.78288 11.3057 1.77697 11.4327 1.80614C14.8903 2.6006 16.6393 6.38985 16.2272 9.78044C16.0681 11.0991 15.6733 12.1322 15.0916 12.9544L15.081 12.9698C15.2133 12.9046 15.335 12.8346 15.449 12.7609C16.0164 12.3919 16.4323 11.906 16.9747 11.2735L17.1769 11.0378C17.254 10.9482 17.352 10.879 17.4622 10.8363C17.5724 10.7936 17.6915 10.7788 17.8088 10.7931C17.9261 10.8074 18.0381 10.8504 18.1348 10.9183C18.2316 10.9862 18.3101 11.077 18.3633 11.1825C18.9678 12.3792 19.213 13.7253 19.0696 15.0584C18.9261 16.3914 18.3999 17.6545 17.5547 18.6952C16.7094 19.7359 15.581 20.5098 14.3057 20.9236C13.0304 21.3373 11.6626 21.3733 10.3674 21.027C9.0721 20.6808 7.90467 19.9672 7.0059 18.9723C6.10713 17.9774 5.51541 16.7438 5.30211 15.4201C5.08882 14.0964 5.26306 12.7393 5.80382 11.5125C6.34458 10.2856 7.22877 9.24142 8.34972 8.50585L8.41392 8.44069C8.44729 8.40714 8.48388 8.37696 8.52317 8.3506C9.35213 7.79189 9.94822 7.33477 10.3498 6.7981C10.7283 6.29114 10.9612 5.67206 10.9612 4.73385C10.9621 4.06074 10.8394 3.39319 10.5989 2.76448C10.5524 2.64275 10.5399 2.51068 10.5627 2.38239C10.5855 2.2541 10.6427 2.13442 10.7283 2.03614L10.7293 2.03519ZM12.3239 3.70556C12.3738 4.04098 12.3996 4.38406 12.3996 4.73289C12.3996 5.94806 12.0853 6.87669 11.5017 7.65773C10.9545 8.39181 10.1955 8.95435 9.38567 9.50252L9.31572 9.57248C9.27856 9.60977 9.23743 9.64288 9.19305 9.67119C8.33498 10.2197 7.64569 10.9952 7.20169 11.9117C6.75769 12.8282 6.57635 13.8498 6.6778 14.8631C6.77925 15.8764 7.15952 16.8418 7.7764 17.6521C8.39328 18.4624 9.22264 19.0858 10.1724 19.4533C11.1222 19.8208 12.1552 19.9179 13.1568 19.7338C14.1584 19.5497 15.0894 19.0917 15.8465 18.4106C16.6035 17.7294 17.157 16.8518 17.4455 15.8751C17.734 14.8985 17.7462 13.8609 17.4807 12.8778C17.1165 13.2716 16.7141 13.6531 16.232 13.9664C15.3465 14.5405 14.2387 14.8682 12.6392 14.8682C12.4797 14.8683 12.3247 14.8153 12.1987 14.7176C12.0726 14.6199 11.9826 14.483 11.9429 14.3286C11.9031 14.1741 11.9159 14.0108 11.9792 13.8644C12.0424 13.718 12.1526 13.5968 12.2923 13.5199C12.943 13.1614 13.4941 12.7235 13.9186 12.1245C14.3403 11.5265 14.6651 10.7282 14.8003 9.60794C15.0945 7.18239 14.0911 4.78944 12.3239 3.70556Z" fill="white"/>
</svg>
