<svg width="16" height="16" viewBox="0 0 16 16" fill="none" xmlns="http://www.w3.org/2000/svg">
<g opacity="0.7" clip-path="url(#clip0_1_90)">
<path d="M6.0269 1.90253L11.2925 7.15253C11.3514 7.20941 11.3967 7.27884 11.425 7.35565C11.4517 7.43089 11.465 7.51021 11.4644 7.59003C11.465 7.66985 11.4517 7.74915 11.425 7.8244C11.3967 7.9012 11.3514 7.97063 11.2925 8.02753L6.0269 13.2932C5.88127 13.4388 5.69877 13.5119 5.48002 13.5119C5.26127 13.5119 5.07377 13.4338 4.91752 13.2775C4.76127 13.1213 4.68315 12.9388 4.68315 12.7307C4.68284 12.6283 4.70348 12.527 4.74379 12.433C4.78409 12.3389 4.84322 12.2541 4.91752 12.1838L9.51127 7.59003L4.91752 2.99628C4.7719 2.85065 4.69877 2.67128 4.69877 2.45753C4.69877 2.24378 4.7769 2.05878 4.93315 1.90253C5.00349 1.82822 5.0883 1.7691 5.18235 1.72879C5.2764 1.68848 5.3777 1.66785 5.48002 1.66815C5.58234 1.66785 5.68365 1.68848 5.77769 1.72879C5.87174 1.7691 5.95655 1.82822 6.0269 1.90253Z" fill="white"/>
</g>
<defs>
<clipPath id="clip0_1_90">
<rect width="15" height="15" fill="white" transform="matrix(-1 0 0 -1 15.48 15.09)"/>
</clipPath>
</defs>
</svg>
