<svg width="24" height="24" viewBox="0 0 24 24" fill="none" xmlns="http://www.w3.org/2000/svg">
<path fill-rule="evenodd" clip-rule="evenodd" d="M12.41 2.74628C12.2194 2.74628 12.0366 2.822 11.9018 2.95679C11.767 3.09159 11.6913 3.2744 11.6913 3.46503V14.2559C10.9725 13.6462 10.0646 13.3046 9.1222 13.2894C8.17981 13.2742 7.26132 13.5863 6.52329 14.1725C5.78526 14.7587 5.27339 15.5827 5.07491 16.5041C4.87644 17.4255 5.00366 18.3872 5.43489 19.2252C5.86611 20.0633 6.57465 20.7259 7.43972 21.1C8.30479 21.4742 9.27284 21.5367 10.1789 21.277C11.0849 21.0173 11.8728 20.4514 12.4083 19.6757C12.9437 18.9001 13.1936 17.9628 13.1154 17.0235C13.1244 16.9768 13.1289 16.9293 13.1288 16.8817V8.01711H18.16C18.859 8.01711 19.5293 7.73945 20.0235 7.24521C20.5178 6.75098 20.7954 6.08065 20.7954 5.38169C20.7954 4.68274 20.5178 4.01241 20.0235 3.51817C19.5293 3.02394 18.859 2.74628 18.16 2.74628H12.41ZM13.1288 6.57961H18.16C18.4777 6.57961 18.7824 6.4534 19.0071 6.22875C19.2317 6.0041 19.3579 5.6994 19.3579 5.38169C19.3579 5.06399 19.2317 4.75929 19.0071 4.53464C18.7824 4.30999 18.4777 4.18378 18.16 4.18378H13.1288V6.57961ZM9.05585 14.7254C8.3569 14.7254 7.68657 15.0031 7.19233 15.4973C6.69809 15.9916 6.42043 16.6619 6.42043 17.3609C6.42043 18.0598 6.69809 18.7301 7.19233 19.2244C7.68657 19.7186 8.3569 19.9963 9.05585 19.9963C9.75481 19.9963 10.4251 19.7186 10.9194 19.2244C11.4136 18.7301 11.6913 18.0598 11.6913 17.3609C11.6913 16.6619 11.4136 15.9916 10.9194 15.4973C10.4251 15.0031 9.75481 14.7254 9.05585 14.7254Z" fill="white"/>
</svg>
