<svg width="24" height="24" viewBox="0 0 24 24" fill="none" xmlns="http://www.w3.org/2000/svg">
<g opacity="0.7" clip-path="url(#clip0_1_57)">
<path d="M8.79336 4.42338V16.8817M15.6646 6.93421V19.7567M2.78461 8.04588V17.3705C2.78461 19.1913 4.07836 19.9388 5.65002 19.038L7.90211 17.7538C8.39086 17.4759 9.20544 17.4471 9.71336 17.7059L14.7446 20.2263C15.2525 20.4755 16.0671 20.4563 16.5559 20.1784L20.7054 17.8017C21.2325 17.495 21.6734 16.7475 21.6734 16.1342V6.80963C21.6734 4.98879 20.3796 4.24129 18.8079 5.14213L16.5559 6.42629C16.0671 6.70421 15.2525 6.73296 14.7446 6.47421L9.71336 3.96338C9.20544 3.71421 8.39086 3.73338 7.90211 4.01129L3.75252 6.38796C3.21586 6.69463 2.78461 7.44213 2.78461 8.04588Z" stroke="white" stroke-width="1.4375" stroke-linecap="round" stroke-linejoin="round"/>
</g>
<defs>
<clipPath id="clip0_1_57">
<rect width="23" height="23" fill="white" transform="translate(0.590027 0.590027)"/>
</clipPath>
</defs>
</svg>
