<svg width="24" height="24" viewBox="0 0 24 24" fill="none" xmlns="http://www.w3.org/2000/svg">
<g opacity="0.7" clip-path="url(#clip0_1_52)">
<path d="M1.83126 1.88377C1.84618 1.76285 1.8944 1.64846 1.97055 1.55336C2.0467 1.45825 2.14778 1.38618 2.26251 1.34518C2.37808 1.30497 2.50275 1.29866 2.6218 1.32702C2.74084 1.35538 2.84927 1.41722 2.9343 1.50523L14.5819 13.4652L21.1541 20.2129C21.275 20.3372 21.3427 20.5038 21.3427 20.6772C21.3427 20.8506 21.275 21.0171 21.1541 21.1415L20.4565 21.8583C20.1477 22.1794 19.7773 22.4349 19.3674 22.6094C18.9575 22.7839 18.5166 22.8738 18.0712 22.8738C17.6257 22.8738 17.1848 22.7839 16.7749 22.6094C16.3651 22.4349 15.9947 22.1794 15.6859 21.8583L11.498 17.5583L9.9838 19.1136C9.91999 19.1792 9.84293 19.2303 9.75778 19.2637C9.67263 19.297 9.58134 19.3119 9.49 19.3071C9.39867 19.3024 9.30939 19.2783 9.22812 19.2363C9.14686 19.1944 9.07549 19.1355 9.01876 19.0638L5.31001 14.4034C3.92431 12.6618 2.90499 10.6581 2.3133 8.51256C1.71214 6.35722 1.54824 4.1034 1.83126 1.88377ZM16.6088 20.9287L16.4458 21.0888L16.6088 20.9297C16.798 21.127 17.0252 21.284 17.2767 21.3912C17.5282 21.4984 17.7987 21.5537 18.0721 21.5537C18.3455 21.5537 18.6161 21.4984 18.8676 21.3912C19.1191 21.284 19.3463 21.127 19.5355 20.9297L19.7818 20.6767L14.1219 14.8654L12.4122 16.6201L16.6088 20.9287ZM6.32009 13.5726L9.57268 17.6608L13.2086 13.9281L3.00618 3.4516C2.88159 7.10285 4.05651 10.7273 6.32009 13.5726Z" fill="white"/>
</g>
<defs>
<clipPath id="clip0_1_52">
<rect width="23" height="23" fill="white" transform="translate(0.0200195 0.590027)"/>
</clipPath>
</defs>
</svg>
