<svg width="24" height="24" viewBox="0 0 24 24" fill="none" xmlns="http://www.w3.org/2000/svg">
<g opacity="0.7" clip-path="url(#clip0_1_72)">
<path d="M8.93505 21.6734H14.685C19.4767 21.6734 21.3934 19.7567 21.3934 14.965V9.21505C21.3934 4.42338 19.4767 2.50671 14.685 2.50671H8.93505C4.14338 2.50671 2.22672 4.42338 2.22672 9.21505V14.965C2.22672 19.7567 4.14338 21.6734 8.93505 21.6734Z" stroke="white" stroke-width="1.4375" stroke-linecap="round" stroke-linejoin="round"/>
<path d="M15.1642 9.93378C15.5455 9.93378 15.9111 9.78233 16.1807 9.51274C16.4503 9.24316 16.6017 8.87753 16.6017 8.49628C16.6017 8.11503 16.4503 7.74939 16.1807 7.47981C15.9111 7.21023 15.5455 7.05878 15.1642 7.05878C14.783 7.05878 14.4174 7.21023 14.1478 7.47981C13.8782 7.74939 13.7267 8.11503 13.7267 8.49628C13.7267 8.87753 13.8782 9.24316 14.1478 9.51274C14.4174 9.78233 14.783 9.93378 15.1642 9.93378ZM8.4559 9.93378C8.83715 9.93378 9.20278 9.78233 9.47237 9.51274C9.74195 9.24316 9.8934 8.87753 9.8934 8.49628C9.8934 8.11503 9.74195 7.74939 9.47237 7.47981C9.20278 7.21023 8.83715 7.05878 8.4559 7.05878C8.07465 7.05878 7.70902 7.21023 7.43944 7.47981C7.16985 7.74939 7.0184 8.11503 7.0184 8.49628C7.0184 8.87753 7.16985 9.24316 7.43944 9.51274C7.70902 9.78233 8.07465 9.93378 8.4559 9.93378ZM8.36007 13.3359H15.2601C15.7392 13.3359 16.1226 13.7192 16.1226 14.1984C16.1226 16.5846 14.1963 18.5109 11.8101 18.5109C9.42382 18.5109 7.49757 16.5846 7.49757 14.1984C7.49757 13.7192 7.8809 13.3359 8.36007 13.3359Z" stroke="white" stroke-width="1.4375" stroke-miterlimit="10" stroke-linecap="round" stroke-linejoin="round"/>
</g>
<defs>
<clipPath id="clip0_1_72">
<rect width="23" height="23" fill="white" transform="translate(0.310059 0.590027)"/>
</clipPath>
</defs>
</svg>
