<svg width="24" height="24" viewBox="0 0 24 24" fill="none" xmlns="http://www.w3.org/2000/svg">
<g opacity="0.7" clip-path="url(#clip0_1_46)">
<path d="M19.6725 8.34294C19.6725 8.74544 19.6438 9.13835 19.5958 9.5121C18.8603 9.19109 18.0378 9.12812 17.2619 9.3334C16.486 9.53867 15.8023 10.0002 15.3217 10.6429C14.9889 10.1999 14.5577 9.84021 14.062 9.5924C13.5664 9.34458 13.02 9.21539 12.4658 9.21502C10.5013 9.21502 8.91042 10.8154 8.91042 12.7992C8.91042 15.3675 10.2713 17.3321 11.7854 18.6642C11.7375 18.6929 11.6896 18.7025 11.6417 18.7217C11.3542 18.8271 10.875 18.8271 10.5875 18.7217C8.10542 17.8688 2.55667 14.3421 2.55667 8.34294C2.55667 5.69794 4.68417 3.56085 7.31 3.56085C8.87209 3.56085 10.2521 4.30835 11.1146 5.46794C11.5568 4.87611 12.1309 4.39557 12.7914 4.06451C13.4518 3.73345 14.1804 3.561 14.9192 3.56085C17.545 3.56085 19.6725 5.69794 19.6725 8.34294Z" stroke="white" stroke-width="1.4375" stroke-linecap="round" stroke-linejoin="round"/>
<path d="M21.7233 12.7992C21.7233 17.2842 17.5738 19.9292 15.7146 20.5617C15.4942 20.6384 15.1396 20.6384 14.9192 20.5617C14.1238 20.2934 12.9067 19.6513 11.7854 18.6642C10.2713 17.3321 8.91043 15.3675 8.91043 12.7992C8.91043 10.8155 10.5013 9.21504 12.4658 9.21504C13.635 9.21504 14.67 9.78046 15.3217 10.643C15.8023 10.0002 16.486 9.5387 17.2619 9.33342C18.0378 9.12814 18.8603 9.19112 19.5958 9.51213C20.8513 10.068 21.7233 11.3234 21.7233 12.7992Z" stroke="white" stroke-width="1.4375" stroke-linecap="round" stroke-linejoin="round"/>
</g>
<defs>
<clipPath id="clip0_1_46">
<rect width="23" height="23" fill="white" transform="translate(0.640015 0.590027)"/>
</clipPath>
</defs>
</svg>
