<svg width="24" height="24" viewBox="0 0 24 24" fill="none" xmlns="http://www.w3.org/2000/svg">
<g clip-path="url(#clip0_1_84)">
<path d="M6.08036 12.0258L7.16806 6.59204H12.6018L15.8611 12.0258M22.3816 8.76554H13.9061M18.0346 12.0258H4.99456C4.56642 12.0258 4.14247 12.1101 3.74692 12.274C3.35137 12.4378 2.99196 12.678 2.68922 12.9807C2.38648 13.2834 2.14633 13.6428 1.98249 14.0384C1.81864 14.4339 1.73431 14.8579 1.73431 15.286C1.73431 15.7142 1.81864 16.1381 1.98249 16.5337C2.14633 16.9292 2.38648 17.2886 2.68922 17.5914C2.99196 17.8941 3.35137 18.1343 3.74692 18.2981C4.14247 18.462 4.56642 18.5463 4.99456 18.5463H18.0346C18.8993 18.5463 19.7285 18.2028 20.34 17.5914C20.9514 16.98 21.2949 16.1507 21.2949 15.286C21.2949 14.4214 20.9514 13.5921 20.34 12.9807C19.7285 12.3693 18.8993 12.0258 18.0346 12.0258Z" stroke="white" stroke-width="1.4375" stroke-linecap="round" stroke-linejoin="round"/>
</g>
<defs>
<clipPath id="clip0_1_84">
<rect width="23" height="23" fill="white" transform="translate(0.339966 0.590027)"/>
</clipPath>
</defs>
</svg>
