<svg width="14" height="25" viewBox="0 0 14 25" fill="none" xmlns="http://www.w3.org/2000/svg">
<path d="M3.09377 1.42499L13.625 11.925C13.7428 12.0388 13.8334 12.1776 13.89 12.3312C13.9433 12.4817 13.97 12.6403 13.9688 12.8C13.9699 12.9596 13.9433 13.1182 13.89 13.2687C13.8333 13.4223 13.7427 13.5612 13.625 13.675L3.09377 24.2062C2.80252 24.4975 2.43752 24.6437 2.00002 24.6437C1.56252 24.6437 1.18752 24.4875 0.875023 24.175C0.562523 23.8625 0.406273 23.4975 0.406273 23.0812C0.405663 22.8766 0.446936 22.674 0.527549 22.4859C0.608162 22.2978 0.726412 22.1282 0.875023 21.9875L10.0625 12.8L0.875023 3.61249C0.583773 3.32124 0.437522 2.96249 0.437522 2.53499C0.437522 2.10749 0.593772 1.73749 0.906272 1.42499C1.04696 1.27638 1.21658 1.15813 1.40468 1.07751C1.59277 0.996901 1.79538 0.955627 2.00002 0.956238C2.20467 0.955627 2.40727 0.996901 2.59537 1.07751C2.78347 1.15813 2.95308 1.27638 3.09377 1.42499Z" fill="white"/>
</svg>
