<svg width="22" height="22" viewBox="0 0 22 22" fill="none" xmlns="http://www.w3.org/2000/svg">
<path fill-rule="evenodd" clip-rule="evenodd" d="M10.1195 5.49951L11.3461 4.27284C12.3336 3.28384 14.0678 2.59844 15.7897 2.35157C16.5531 2.23264 17.3295 2.22231 18.0959 2.32091C18.7751 2.42211 19.1907 2.62144 19.3839 2.81617C19.5786 3.00937 19.7779 3.42491 19.8791 4.10417C19.9773 4.75891 19.9696 5.56084 19.8485 6.41031C19.6031 8.13224 18.9162 9.86644 17.9272 10.8539L11.11 17.6726L9.35279 15.9154C9.2816 15.8442 9.19708 15.7876 9.10404 15.749C9.011 15.7104 8.91126 15.6905 8.81053 15.6904C8.70979 15.6903 8.61003 15.7101 8.51693 15.7486C8.42384 15.787 8.33923 15.8435 8.26795 15.9147C8.12399 16.0584 8.04304 16.2535 8.04289 16.4569C8.04282 16.5577 8.06259 16.6574 8.10108 16.7505C8.13956 16.8436 8.196 16.9282 8.26719 16.9995L10.5672 19.2995C10.6384 19.3709 10.723 19.4275 10.8161 19.4662C10.9093 19.5048 11.0091 19.5247 11.11 19.5247C11.2108 19.5247 11.3107 19.5048 11.4038 19.4662C11.497 19.4275 11.5816 19.3709 11.6528 19.2995L12.4915 18.4592L14.2855 21.4508C14.3453 21.5509 14.4272 21.6361 14.525 21.6999C14.6227 21.7636 14.7337 21.8042 14.8495 21.8185C14.9653 21.8329 15.0828 21.8206 15.1931 21.7826C15.3035 21.7447 15.4037 21.682 15.4861 21.5995L18.5528 18.5328C18.637 18.4485 18.7004 18.3457 18.7379 18.2326C18.7754 18.1194 18.7861 17.9991 18.769 17.8812L18.056 12.8948L19.0128 11.9395C20.3238 10.627 21.0951 8.52784 21.3665 6.62651C21.5045 5.66511 21.5198 4.70984 21.3956 3.87571C21.2729 3.06611 21.0031 2.26571 20.4695 1.73057C19.9343 1.19697 19.1339 0.925574 18.3228 0.80444C17.4095 0.684217 16.4838 0.694543 15.5735 0.835107C13.6707 1.10344 11.57 1.87471 10.2605 3.18571L9.30525 4.14251L4.31885 3.42951C4.2009 3.41241 4.08059 3.42305 3.96746 3.46058C3.85434 3.49811 3.75153 3.5615 3.66719 3.64571L0.600519 6.71237C0.517977 6.79483 0.455344 6.89504 0.417391 7.00537C0.379438 7.1157 0.367166 7.23323 0.38151 7.34902C0.395855 7.4648 0.436436 7.57579 0.500164 7.67352C0.563892 7.77125 0.649084 7.85315 0.749252 7.91297L3.73925 9.70697L2.90052 10.5457C2.82912 10.6169 2.77248 10.7015 2.73383 10.7947C2.69518 10.8878 2.67528 10.9877 2.67528 11.0885C2.67528 11.1894 2.69518 11.2892 2.73383 11.3823C2.77248 11.4755 2.82912 11.5601 2.90052 11.6313L5.20052 13.9313C5.2718 14.0026 5.35642 14.0591 5.44956 14.0977C5.54269 14.1363 5.64251 14.1561 5.74332 14.1561C5.84413 14.1561 5.94395 14.1363 6.03708 14.0977C6.13021 14.0591 6.21484 14.0026 6.28612 13.9313C6.3574 13.86 6.41394 13.7754 6.45252 13.6823C6.4911 13.5891 6.51095 13.4893 6.51095 13.3885C6.51095 13.2877 6.4911 13.1879 6.45252 13.0947C6.41394 13.0016 6.3574 12.917 6.28612 12.8457L4.52739 11.09L5.51945 10.0995L10.1195 5.49951ZM15.0951 19.8208L13.6078 17.3414L16.7005 14.2502L17.1973 17.7186L15.0967 19.8193L15.0951 19.8208ZM4.85859 8.59071L7.94979 5.49951L4.48139 5.00271L2.38072 7.10337L4.85859 8.59071ZM3.21792 15.4662C3.2892 15.395 3.34576 15.3105 3.38438 15.2174C3.423 15.1244 3.44291 15.0247 3.44298 14.9239C3.44305 14.8232 3.42328 14.7234 3.38479 14.6303C3.34631 14.5372 3.28987 14.4526 3.21869 14.3813C3.1475 14.3101 3.06298 14.2535 2.96994 14.2149C2.8769 14.1763 2.77716 14.1564 2.67643 14.1563C2.57569 14.1562 2.47593 14.176 2.38283 14.2145C2.28974 14.2529 2.20513 14.3094 2.13385 14.3806L0.600519 15.9139C0.456763 16.0579 0.376082 16.253 0.376226 16.4565C0.37637 16.6599 0.457326 16.855 0.601285 16.9987C0.745245 17.1425 0.940415 17.2232 1.14386 17.223C1.34731 17.2229 1.54236 17.1419 1.68612 16.998L3.21945 15.4646L3.21792 15.4662ZM5.51792 17.7662C5.59114 17.6955 5.64955 17.6109 5.68973 17.5173C5.72991 17.4238 5.75106 17.3232 5.75194 17.2214C5.75283 17.1196 5.73343 17.0186 5.69488 16.9244C5.65633 16.8302 5.59941 16.7446 5.52742 16.6726C5.45544 16.6006 5.36984 16.5437 5.27562 16.5051C5.1814 16.4666 5.08044 16.4472 4.97864 16.4481C4.87685 16.449 4.77625 16.4701 4.68271 16.5103C4.58917 16.5505 4.50457 16.6089 4.43385 16.6821L1.36719 19.7488C1.22343 19.8927 1.14275 20.0879 1.14289 20.2913C1.14304 20.4948 1.22399 20.6898 1.36795 20.8336C1.51191 20.9774 1.70708 21.058 1.91053 21.0579C2.11397 21.0578 2.30903 20.9768 2.45279 20.8328L5.51945 17.7662H5.51792ZM7.81792 20.0662C7.8892 19.995 7.94576 19.9105 7.98438 19.8174C8.02299 19.7244 8.04291 19.6247 8.04298 19.5239C8.04305 19.4232 8.02328 19.3234 7.98479 19.2303C7.94631 19.1372 7.88987 19.0526 7.81869 18.9813C7.7475 18.9101 7.66298 18.8535 7.56994 18.8149C7.4769 18.7763 7.37716 18.7564 7.27643 18.7563C7.17569 18.7562 7.07593 18.776 6.98283 18.8145C6.88974 18.8529 6.80513 18.9094 6.73385 18.9806L5.20052 20.5139C5.05676 20.6579 4.97608 20.853 4.97623 21.0565C4.97637 21.2599 5.05733 21.455 5.20129 21.5987C5.34524 21.7425 5.54041 21.8232 5.74386 21.823C5.94731 21.8229 6.14236 21.7419 6.28612 21.598L7.81945 20.0646L7.81792 20.0662ZM14.1767 9.93697C14.6846 9.93697 15.1717 9.7352 15.5309 9.37604C15.89 9.01689 16.0918 8.52977 16.0918 8.02184C16.0918 7.51392 15.89 7.02679 15.5309 6.66764C15.1717 6.30848 14.6846 6.10671 14.1767 6.10671C13.6687 6.10671 13.1816 6.30848 12.8224 6.66764C12.4633 7.02679 12.2615 7.51392 12.2615 8.02184C12.2615 8.52977 12.4633 9.01689 12.8224 9.37604C13.1816 9.7352 13.6687 9.93697 14.1767 9.93697Z" fill="white"/>
</svg>
