<svg width="22" height="22" viewBox="0 0 22 22" fill="none" xmlns="http://www.w3.org/2000/svg">
<path d="M15.793 13.4284C17.1059 13.6488 18.5529 13.4188 19.5688 12.7384C20.92 11.8375 20.92 10.3617 19.5688 9.46088C18.5434 8.78046 17.0771 8.55046 15.7642 8.78046M6.23837 13.4284C4.92545 13.6488 3.47837 13.4188 2.46253 12.7384C1.11128 11.8375 1.11128 10.3617 2.46253 9.46088C3.48795 8.78046 4.9542 8.55046 6.26712 8.78046M16.78 6.45171C16.7197 6.44212 16.6583 6.44212 16.598 6.45171C15.9584 6.42859 15.3529 6.15771 14.9094 5.69632C14.4659 5.23493 14.2191 4.61919 14.2213 3.97921C14.2213 2.6088 15.3234 1.50671 16.6938 1.50671C17.3495 1.50671 17.9784 1.76721 18.4421 2.23089C18.9058 2.69458 19.1663 3.32347 19.1663 3.97921C19.1645 4.61964 18.9152 5.23459 18.4705 5.69541C18.0257 6.15623 17.42 6.42723 16.78 6.45171ZM5.25128 6.45171C5.30878 6.44213 5.37587 6.44213 5.43337 6.45171C6.07293 6.42859 6.67844 6.15771 7.12195 5.69632C7.56545 5.23493 7.81219 4.61919 7.81003 3.97921C7.81003 2.6088 6.70795 1.50671 5.33753 1.50671C4.68179 1.50671 4.0529 1.76721 3.58921 2.23089C3.12553 2.69458 2.86503 3.32347 2.86503 3.97921C2.87462 5.32088 3.92878 6.4038 5.25128 6.45171ZM11.03 13.6105C10.9697 13.6009 10.9083 13.6009 10.848 13.6105C10.2084 13.5873 9.60288 13.3165 9.15937 12.8551C8.71587 12.3937 8.46912 11.7779 8.47128 11.138C8.47128 9.76755 9.57337 8.66546 10.9438 8.66546C11.5995 8.66546 12.2284 8.92596 12.6921 9.38964C13.1558 9.85333 13.4163 10.4822 13.4163 11.138C13.4067 12.4796 12.3525 13.5721 11.03 13.6105ZM8.24128 16.6292C6.89003 17.53 6.89003 19.0059 8.24128 19.9067C9.77462 20.9321 12.2855 20.9321 13.8188 19.9067C15.17 19.0059 15.17 17.53 13.8188 16.6292C12.295 15.6134 9.77462 15.6134 8.24128 16.6292Z" stroke="white" stroke-width="1.4375" stroke-linecap="round" stroke-linejoin="round"/>
</svg>
