<svg width="16" height="19" viewBox="0 0 16 19" fill="none" xmlns="http://www.w3.org/2000/svg">
<path d="M8.18007 8.28C8.10038 8.26999 8.01976 8.26999 7.94007 8.28C7.09202 8.25146 6.28827 7.89438 5.69862 7.2842C5.10896 6.67402 4.77959 5.85853 4.78007 5.01C4.78007 3.2 6.24007 1.73 8.06007 1.73C8.91951 1.72851 9.74511 2.06481 10.3589 2.6664C10.9727 3.268 11.3255 4.08669 11.3412 4.94599C11.3569 5.80528 11.0344 6.63635 10.4431 7.26002C9.85172 7.88369 9.03899 8.25001 8.18007 8.28ZM14.8001 14.88C12.9623 16.5691 10.5561 17.5044 8.06007 17.5C5.46007 17.5 3.10007 16.51 1.32007 14.88C1.42007 13.94 2.02007 13.02 3.09007 12.3C5.83007 10.48 10.3101 10.48 13.0301 12.3C14.1001 13.02 14.7001 13.94 14.8001 14.88Z" stroke="white" stroke-width="1.5" stroke-linecap="round" stroke-linejoin="round"/>
</svg>
