<svg width="14" height="25" viewBox="0 0 14 25" fill="none" xmlns="http://www.w3.org/2000/svg">
<path d="M10.9062 24.175L0.374978 13.675C0.257221 13.5612 0.16664 13.4224 0.109978 13.2687C0.0566661 13.1183 0.0300169 12.9596 0.0312285 12.8C0.0300679 12.6404 0.0567157 12.4817 0.109978 12.3312C0.166678 12.1776 0.257254 12.0388 0.374978 11.925L10.9062 1.39374C11.1975 1.10249 11.5625 0.956238 12 0.956238C12.4375 0.956238 12.8125 1.11249 13.125 1.42499C13.4375 1.73749 13.5937 2.10249 13.5937 2.51874C13.5943 2.72338 13.5531 2.92599 13.4725 3.11408C13.3918 3.30218 13.2736 3.4718 13.125 3.61249L3.93748 12.8L13.125 21.9875C13.4162 22.2787 13.5625 22.6375 13.5625 23.065C13.5625 23.4925 13.4062 23.8625 13.0937 24.175C12.953 24.3236 12.7834 24.4418 12.5953 24.5225C12.4072 24.6031 12.2046 24.6443 12 24.6437C11.7953 24.6443 11.5927 24.6031 11.4046 24.5225C11.2165 24.4418 11.0469 24.3236 10.9062 24.175Z" fill="white"/>
</svg>
